# xmcd CD database file
#
# Track frame offsets:
#	150
#	15380
#	27270
#	42603
#	58950
#	71152
#	84842
#	104140
#	117760
#	131888
#	146178
#	158513
#	177760
#	193018
#
# Disc length: 2765 seconds
#
# Revision: 0
# Processed by: cddbd v1.4PL0 Copyright (c) Steve Scherf et al.
# Submitted via: CDex 1.50beta10
#
DISCID=c90acb0e
DTITLE=Dagmar - Voll auf Tour - Für meine Helden von der Autobahn
DYEAR=1999
DGENRE=Country
TTITLE0=Du hast doch ein Rad ab
TTITLE1=Dieter fährt, Petra putzt
TTITLE2=Schau dem Morgen in's Gesicht
TTITLE3=Ist es wahr
TTITLE4=Fahrtenschreiber, Zeitmaschinen
TTITLE5=Mit dem Jeep durch den Canyon
TTITLE6=Du gingst in die Dunkelheit
TTITLE7=Der Teufel in der Flasche
TTITLE8=Wir sitzen alle im selben Boot
TTITLE9=Das braucht kein Mensch
TTITLE10=Tränen im Kaffee
TTITLE11=Du bist das, was mir fehlt
TTITLE12=Highway Heaven
TTITLE13=I Love Country Music
EXTD=YEAR: 1999
EXTT0=
EXTT1=
EXTT2=
EXTT3=
EXTT4=
EXTT5=
EXTT6=
EXTT7=
EXTT8=
EXTT9=
EXTT10=
EXTT11=
EXTT12=
EXTT13=
PLAYORDER=
